#define back_width 20
#define back_height 23
static char back_bits[] = {
   0x00, 0x00, 0x00, 0x00, 0x00, 0x00, 0x00, 0x00, 0x00, 0x00, 0x80, 0x0f,
   0x00, 0x80, 0x0f, 0x00, 0x80, 0x0f, 0x00, 0x80, 0x0f, 0x00, 0x80, 0x0f,
   0x00, 0x80, 0x0f, 0x60, 0x80, 0x0f, 0x70, 0x80, 0x0f, 0x78, 0x00, 0x00,
   0xfc, 0xff, 0x0f, 0xfe, 0xff, 0x07, 0xff, 0xff, 0x03, 0xfe, 0xff, 0x01,
   0xfc, 0xff, 0x00, 0x78, 0x00, 0x00, 0x70, 0x00, 0x00, 0x60, 0x00, 0x00,
   0x00, 0x00, 0x00, 0x00, 0x00, 0x00, 0x00, 0x00, 0x00};
